<?xml version="1.0" encoding="UTF-8"?> <svg xmlns="http://www.w3.org/2000/svg" class="brxe-svg" id="brxe-yppgpx" width="448" height="408" viewBox="0 0 448 408" fill="none"><path d="M392.985 2.53333C385.298 3.91617 365.748 7.40964 349.531 10.3063C333.314 13.203 319.892 15.6485 319.688 15.7504C319.309 15.9396 319.12 16.6674 319.353 17.075C319.47 17.2642 324.084 21.5001 336.473 32.7375C339.966 35.8962 342.82 38.5308 342.82 38.5891C342.834 38.6909 229.941 154.806 225.37 159.406L223.536 161.254L206.65 161.997C197.362 162.404 181.669 163.088 171.784 163.525C161.9 163.962 147.415 164.588 139.613 164.922C127.399 165.447 125.375 165.563 125.084 165.767C124.91 165.898 120.062 172.652 114.326 180.774C101.559 198.868 93.2617 210.614 79.272 230.411C73.3617 238.781 68.1502 246.146 67.6989 246.787C66.3887 248.65 54.4371 265.564 48.323 274.225C45.2368 278.592 38.2055 288.548 32.6883 296.351C27.171 304.153 21.712 311.882 20.5474 313.527C19.3974 315.172 14.739 321.751 10.2116 328.156C5.69881 334.561 1.54994 340.427 0.996763 341.198C-0.0513721 342.698 -0.226061 343.265 0.254334 343.746C0.487253 343.964 4.34497 343.979 62.8076 343.891C97.0903 343.848 127.865 343.76 131.198 343.717L137.269 343.629L137.414 343.964C137.487 344.153 137.895 345.987 138.302 348.025C138.71 350.063 139.089 351.839 139.118 351.955C139.147 352.101 136.832 354.706 132.902 358.942C129.451 362.669 126.525 365.871 126.394 366.06C126.22 366.322 126.205 366.482 126.322 366.788C126.438 367.123 136.264 382.8 137.021 383.877C137.4 384.416 137.909 384.387 139.773 383.746C141.374 383.193 149.89 380.282 153.792 378.943L156.106 378.157L160.954 381.534L165.816 384.911L165.831 385.726C165.831 386.162 166.005 390.311 166.224 394.925C166.558 402.072 166.66 403.368 166.864 403.572C167.01 403.717 170.503 404.532 177.185 405.973C187.07 408.113 187.288 408.142 187.623 407.895C187.841 407.72 189.399 404.693 192.034 399.263C194.276 394.663 196.139 390.864 196.212 390.806C196.27 390.748 198.759 390.267 201.758 389.743C206.373 388.928 207.246 388.812 207.436 388.986C207.567 389.088 210.959 391.97 214.991 395.391C220.916 400.398 222.401 401.592 222.735 401.592C223.027 401.592 225.341 400.136 231.281 396.192C235.75 393.222 239.447 390.704 239.506 390.617C239.724 390.282 239.608 389.671 238.836 387.327C238.399 386.002 237.089 382.014 235.91 378.462L233.77 371.999L234.571 370.82C235.022 370.165 236.434 368.069 237.73 366.148C239.025 364.226 240.102 362.64 240.132 362.61C240.161 362.581 244.411 362.348 249.594 362.072C258.197 361.635 259.042 361.562 259.275 361.315C259.478 361.126 260.119 358.375 261.662 351.228C262.827 345.813 263.787 341.3 263.787 341.169C263.787 341.038 263.642 340.805 263.467 340.645C263.278 340.485 259.493 338.462 255.053 336.162C250.613 333.862 246.959 331.955 246.93 331.941C246.901 331.911 246.493 330.267 246.013 328.287L245.154 324.662L246.289 323.498C247.469 322.304 254.223 315.186 270.396 298.097C275.521 292.697 280.121 287.835 280.63 287.297C281.402 286.496 281.577 286.365 281.679 286.569C281.751 286.714 282.741 288.752 283.877 291.11C284.998 293.468 286.046 295.492 286.177 295.579C286.497 295.841 287.094 295.812 288.433 295.492L289.583 295.215L291.534 299.233C292.611 301.431 293.47 303.265 293.441 303.279C293.426 303.308 293.135 303.367 292.829 303.41L292.247 303.498L287.589 299.568C283.717 296.292 282.858 295.623 282.494 295.637C282.173 295.637 280.761 296.511 277.035 299.014C272.304 302.188 272.012 302.421 271.969 302.857C271.94 303.148 272.566 305.434 273.614 308.869L275.288 314.415L274.167 316.118C273.555 317.05 272.711 318.36 272.274 319.015L271.503 320.223H270.44C268.417 320.237 260.075 320.63 259.828 320.732C259.697 320.776 259.522 320.994 259.435 321.213C259.071 322.159 256.625 333.484 256.712 333.847C256.8 334.182 257.484 334.561 262.172 336.846L267.529 339.481L268.082 342.596C268.373 344.313 268.65 345.827 268.679 345.958C268.722 346.118 267.456 347.618 264.967 350.354C261.735 353.891 261.167 354.575 261.167 354.954C261.167 355.303 261.982 356.672 264.588 360.704C266.757 364.052 268.14 366.075 268.373 366.191C268.708 366.366 269.232 366.22 274.254 364.474L279.786 362.552L282.45 364.401C283.92 365.42 285.129 366.264 285.143 366.279C285.143 366.279 285.391 369.03 285.667 372.378C286.06 377.167 286.22 378.52 286.395 378.695C286.73 379.03 298.696 381.417 299.118 381.228C299.351 381.126 300.196 379.583 302.044 375.871L304.665 370.66L307.882 370.02C310.648 369.466 311.128 369.408 311.347 369.583C311.478 369.699 313.428 371.446 315.67 373.455C318.785 376.264 319.834 377.138 320.125 377.138C320.372 377.138 322.367 375.929 325.802 373.702C328.728 371.81 331.159 370.194 331.217 370.092C331.276 370.005 331.334 369.772 331.334 369.568C331.334 368.928 327.738 357.88 327.462 357.676C326.865 357.239 325.948 357.69 325.948 358.418C325.948 358.608 326.676 361.038 327.564 363.819C328.437 366.599 329.15 368.957 329.121 369.073C329.092 369.234 326.02 371.271 321.042 374.459L320.27 374.94L316.092 371.17C313.123 368.491 311.798 367.385 311.55 367.385C310.866 367.385 303.602 368.87 303.398 369.059C303.296 369.161 302.073 371.461 300.691 374.183C298.842 377.793 298.099 379.117 297.91 379.132C297.75 379.146 295.479 378.724 292.829 378.186L288.026 377.21L287.531 371.315C287.079 365.827 287.021 365.391 286.73 365.1C286.57 364.925 285.056 363.833 283.382 362.669C281.329 361.242 280.194 360.544 279.946 360.544C279.611 360.544 277.763 361.169 270.193 363.804L269.159 364.168L268.504 363.149C267.558 361.664 265.039 357.763 264.122 356.351C263.336 355.158 263.336 355.129 263.598 354.837C263.744 354.663 265.331 352.916 267.107 350.951C268.897 348.986 270.469 347.225 270.586 347.05C270.79 346.744 270.746 346.38 270.12 342.974C269.756 340.907 269.377 338.971 269.305 338.651L269.159 338.098L263.948 335.521L258.736 332.959L259.901 327.792C260.527 324.954 261.08 322.595 261.109 322.566C261.123 322.537 263.598 322.421 266.582 322.319C269.567 322.202 272.158 322.071 272.347 322.028C272.595 321.984 273.293 321.052 274.953 318.505C276.205 316.613 277.253 314.924 277.297 314.75C277.326 314.59 276.918 313.047 276.394 311.329C275.87 309.611 275.113 307.137 274.72 305.827C274.312 304.502 274.007 303.41 274.021 303.41C274.036 303.396 275.928 302.115 278.228 300.572L282.421 297.748L282.741 298.054C282.93 298.214 284.998 299.961 287.341 301.94C290.311 304.444 291.709 305.521 291.956 305.521C292.145 305.521 292.771 305.419 293.354 305.303C293.936 305.172 294.416 305.099 294.431 305.113C294.562 305.288 300.327 317.093 300.327 317.181C300.327 317.253 300.166 317.312 299.963 317.312C299.759 317.312 299.075 317.413 298.463 317.53C291.636 318.913 286.017 323.847 283.818 330.427C283.105 332.566 282.93 333.789 282.93 336.599C282.93 340.281 283.455 342.479 285.056 345.551C287.895 350.98 292.975 354.605 299.308 355.696C301.229 356.031 305.32 356.031 307.169 355.696C309.571 355.26 311.943 354.43 313.399 353.513L313.981 353.134L328.859 352.683C337.681 352.421 343.839 352.188 343.999 352.101C344.348 351.912 344.29 352.101 345.746 345.143C346.808 340.077 346.91 339.393 346.736 339.117C346.619 338.942 344.217 337.647 341.16 336.104L335.774 333.396L335.206 330.281C334.871 328.374 334.697 327.079 334.769 326.977C334.842 326.875 336.589 324.823 338.656 322.406C341.379 319.218 342.398 317.937 342.398 317.661C342.398 317.443 341.233 315.492 339.326 312.537C337.637 309.917 336.094 307.559 335.89 307.297C335.439 306.7 335.046 306.686 333.139 307.253C332.338 307.486 329.849 308.214 327.593 308.869L323.487 310.048L322.352 309.262C321.726 308.84 320.605 308.068 319.863 307.559C319.062 307.006 318.494 306.511 318.451 306.336C318.421 306.161 318.13 303.381 317.795 300.135C317.388 295.928 317.155 294.196 317.009 294.051C316.791 293.818 305.524 291.416 304.679 291.401C304.359 291.401 304.068 291.503 303.937 291.649C303.806 291.794 302.539 294.24 301.113 297.108L298.521 302.29L297.284 302.537C296.6 302.668 295.916 302.799 295.785 302.843C295.566 302.901 295.173 302.202 293.557 298.883C292.48 296.671 291.607 294.837 291.621 294.822C291.65 294.793 292.611 294.575 293.776 294.313C296.483 293.73 296.367 293.76 296.542 293.425C296.629 293.279 296.789 291.11 296.906 288.636C297.007 286.161 297.138 284.08 297.182 284.007C297.211 283.949 298.099 283.323 299.118 282.61L300.996 281.343L305.203 282.58C307.533 283.279 309.571 283.832 309.745 283.832C309.934 283.832 310.197 283.716 310.328 283.57C310.852 283.046 315.612 275.564 315.612 275.273C315.612 274.982 314.447 273.526 310.822 269.276C309.789 268.082 309.643 267.835 309.702 267.456C309.745 267.209 309.92 266.234 310.095 265.259L310.415 263.497L314.549 261.125C317.723 259.29 318.698 258.679 318.756 258.417C318.8 258.228 318.392 255.986 317.81 253.381C317.024 249.756 316.718 248.621 316.5 248.446C316.281 248.257 315.408 248.184 311.74 248.038C309.265 247.922 307.198 247.82 307.139 247.776C307.081 247.747 306.441 246.889 305.727 245.855L304.417 243.992L305.655 239.683C306.324 237.311 306.877 235.185 306.877 234.952C306.877 234.72 306.761 234.428 306.63 234.312C306.484 234.196 304.679 233.031 302.612 231.75C299.759 229.96 298.74 229.392 298.39 229.392C297.997 229.392 297.415 229.843 294.504 232.391C292.276 234.327 290.995 235.345 290.835 235.316C290.704 235.273 289.598 235.098 288.389 234.909L286.177 234.574L284.153 230.542C282.77 227.762 282.057 226.481 281.853 226.408C281.504 226.306 272.129 228.184 271.707 228.446C271.328 228.693 271.27 229.348 271.124 234.458L271.022 237.849L268.941 239.276L266.844 240.717L262.885 239.407C260.512 238.635 258.751 238.126 258.489 238.155C258.081 238.198 257.833 238.533 255.315 242.405C253.408 245.346 252.578 246.743 252.578 247.034C252.578 247.427 252.986 247.893 258.139 253.337L258.678 253.919L258.241 256.263L257.79 258.606L253.714 260.848C250.773 262.464 249.594 263.177 249.507 263.424C249.419 263.672 249.667 265.026 250.409 268.374C251.253 272.129 251.516 273.046 251.778 273.294C252.069 273.57 252.389 273.599 256.45 273.774C258.838 273.876 260.847 273.992 260.905 274.021C261.123 274.152 263.642 277.85 263.642 278.039C263.642 278.141 263.06 280.062 262.332 282.289C261.182 285.885 261.051 286.394 261.211 286.729C261.444 287.209 269.392 292.406 269.916 292.42C270.193 292.42 271.066 291.722 273.555 289.509C276.642 286.743 276.845 286.598 277.399 286.598C277.719 286.598 278.068 286.656 278.17 286.714C278.359 286.845 276.554 288.767 253.685 312.843C247.993 318.84 243.276 323.876 243.203 324.066C243.058 324.459 245.023 332.974 245.329 333.265C245.431 333.367 249.128 335.318 253.524 337.603C259.202 340.543 261.546 341.824 261.56 342.013C261.618 342.334 257.921 359.481 257.775 359.626C257.717 359.67 253.554 359.932 248.517 360.194C243.465 360.456 239.244 360.718 239.127 360.791C238.778 360.98 231.761 371.446 231.761 371.781C231.761 372.057 233.683 378.04 236.405 386.206L237.555 389.671L230.203 394.547C223.798 398.783 222.823 399.394 222.604 399.234C222.459 399.132 219.154 396.323 215.253 393.004C211.352 389.685 208.032 386.905 207.901 386.847C207.669 386.73 196.882 388.535 195.338 388.943C194.829 389.074 194.742 389.176 194.072 390.573C192.281 394.314 186.633 405.872 186.575 405.93C186.531 405.959 184.362 405.522 181.727 404.955C179.107 404.401 175.089 403.528 172.804 403.033C170.518 402.553 168.611 402.102 168.567 402.043C168.524 402 168.305 397.924 168.087 393.004C167.854 388.084 167.636 383.964 167.577 383.863C167.374 383.499 156.616 376.119 156.295 376.119C156.121 376.119 155.422 376.308 154.738 376.541C154.068 376.774 150.924 377.851 147.765 378.928C144.606 380.005 141.185 381.17 140.166 381.519C138.972 381.927 138.259 382.101 138.186 382.014C137.938 381.752 128.549 366.788 128.549 366.672C128.549 366.613 131.344 363.557 134.75 359.874C138.157 356.206 141.01 353.062 141.097 352.887C141.199 352.669 141.01 351.504 140.355 348.331C139.86 345.987 139.467 343.979 139.467 343.862C139.467 343.687 141.17 343.658 151.084 343.658H162.686L163.239 345.376C164.273 348.564 166.456 352.567 168.582 355.158C176.749 365.143 190.141 368.986 202.428 364.896C211.643 361.824 220.552 353.134 223.653 344.168C223.929 343.367 224.235 342.334 224.337 341.868L224.511 341.009L241.165 323.396C254.645 309.131 257.819 305.696 257.819 305.39C257.804 305.172 257.339 304.298 256.683 303.308C256.072 302.362 254.587 300.106 253.408 298.287C247.978 289.946 246.93 288.403 246.595 288.214C246.26 288.024 245.547 288.243 236.842 291.139L227.452 294.269L226.36 293.527C224.905 292.508 218.63 288.141 218.499 288.054C218.441 288.01 218.063 283.643 217.655 278.345C217.233 273.032 216.869 268.606 216.825 268.49C216.709 268.199 216.214 268.024 214.292 267.602C204.743 265.521 197.609 264.036 197.202 264.036C196.809 264.036 196.634 264.123 196.416 264.429C196.27 264.662 194.101 268.548 191.583 273.104C188.176 279.291 186.953 281.387 186.72 281.43C186.065 281.591 177.113 283.25 176.923 283.25C176.807 283.25 173.226 280.397 168.975 276.918C162.701 271.78 161.143 270.586 160.808 270.586C160.401 270.586 158.319 271.911 146.644 279.553C143.907 281.343 143.689 281.518 143.689 281.925C143.689 282.158 145.028 286.438 146.673 291.431C148.318 296.438 149.657 300.572 149.657 300.616C149.657 300.674 148.303 302.726 146.644 305.186C144.999 307.661 143.63 309.684 143.63 309.684C143.616 309.699 139.19 310.077 133.79 310.528C128.389 310.98 123.818 311.416 123.629 311.489C123.454 311.562 123.235 311.78 123.163 311.955C123.09 312.144 122.187 316.482 121.183 321.591C119.509 330.005 119.349 330.936 119.538 331.256C119.683 331.504 122.304 332.989 128.258 336.162C136.308 340.47 136.774 340.747 136.89 341.184C136.949 341.446 136.978 341.679 136.949 341.708C136.861 341.81 3.06392 342.101 2.96202 342.013C2.91834 341.97 3.92281 340.47 5.1893 338.68C7.91154 334.823 18.3347 320.063 19.5138 318.403C19.9651 317.763 23.6627 312.523 27.7388 306.758C37.6378 292.755 40.9423 288.068 41.9323 286.671C42.3835 286.03 46.0811 280.79 50.1572 275.026C54.2333 269.261 62.0506 258.184 67.5388 250.426C73.0124 242.653 80.9753 231.386 85.226 225.389C89.4622 219.377 95.8238 210.382 99.3613 205.374C107.281 194.166 117.718 179.377 121.78 173.642C123.454 171.284 125.099 168.94 125.463 168.431C125.827 167.907 126.234 167.499 126.409 167.47C126.584 167.426 142.815 166.713 162.468 165.854C223.522 163.205 224.351 163.176 224.613 162.972C224.744 162.885 236.652 150.672 251.064 135.868C265.462 121.05 290.224 95.6058 306.077 79.3174C321.915 63.029 337.23 47.2937 340.112 44.3533C345.003 39.3315 345.324 38.9675 345.28 38.5308C345.236 38.1087 343.97 36.9151 333.794 27.6428C327.505 21.9222 322.367 17.2205 322.381 17.1914C322.41 17.1478 325.22 16.6383 345.527 13.0138C384.818 5.98312 394.295 4.29462 400.001 3.27567C403.379 2.66431 406.174 2.1694 406.217 2.1694C406.246 2.1694 406.188 2.47507 406.072 2.85355C405.97 3.24655 404.529 8.55957 402.884 14.6877C398.677 30.2775 393.276 50.3068 391.82 55.6635C391.15 58.1381 389.84 62.9853 388.909 66.4351C387.977 69.8704 386.885 73.9024 386.477 75.3872C386.084 76.8719 385.56 78.837 385.313 79.7541C385.08 80.6711 384.862 81.4426 384.832 81.4717C384.818 81.4862 379.796 75.9403 373.681 69.128C367.349 62.0682 362.429 56.7116 362.254 56.6679C362.079 56.6242 361.773 56.6679 361.584 56.7843C361.38 56.8862 332.12 85.824 296.542 121.094C260.978 156.363 231.732 185.258 231.557 185.316C231.397 185.374 210.653 185.883 185.468 186.451C160.284 187.019 139.569 187.514 139.438 187.557C139.307 187.601 137.953 189.377 136.439 191.517C134.94 193.656 126.671 205.36 118.068 217.529C109.479 229.698 102.069 240.178 101.618 240.819C97.8764 246.132 68.3831 287.908 67.8445 288.636C67.4805 289.16 66.709 290.237 66.1413 291.038C65.5735 291.838 61.6284 297.442 57.3631 303.483C53.0832 309.524 46.8381 318.374 43.4753 323.134C39.9524 328.112 37.3321 331.97 37.303 332.203C37.2593 332.45 37.3321 332.712 37.4922 332.887C37.7543 333.178 38.0891 333.178 59.998 333.178C84.8039 333.178 82.6057 333.28 82.7513 332.115C82.7949 331.78 83.2608 319.597 83.7849 305.041C84.5127 285.011 84.8039 278.374 84.964 277.748C85.9685 273.818 89.6952 271.154 95.0669 270.557C96.3042 270.426 96.9739 270.426 98.1967 270.572C101.225 270.921 103.481 271.823 105.17 273.366C106.262 274.371 106.858 275.259 107.31 276.554C107.703 277.69 107.703 275.841 107.295 309.437C107.033 330.194 107.019 332.523 107.222 332.843L107.441 333.178H112.084C116.379 333.178 116.728 333.163 116.947 332.916C117.18 332.668 117.194 329.189 117.194 285.914C117.194 234.807 117.136 238.111 118.038 235.971C119.756 231.867 124.298 228.693 129.583 227.922C131.067 227.703 133.964 227.834 135.245 228.155C136.657 228.519 138.695 229.567 139.642 230.411C140.821 231.459 141.782 232.987 142.393 234.705L142.888 236.161L142.961 253.963L143.034 271.78L143.383 272.056C143.703 272.318 143.994 272.333 147.838 272.333C151.681 272.333 151.972 272.318 152.292 272.056L152.641 271.78L152.714 240.353L152.787 208.94L153.122 207.922C153.952 205.462 155.364 203.438 157.242 201.997C161.012 199.115 166.34 198.314 170.605 200.003C173.604 201.197 175.919 203.627 176.967 206.699C177.797 209.144 177.753 207.398 177.753 242.886V275.55L178.117 275.899L178.466 276.263H183.503H188.54L188.889 275.899L189.253 275.55V241.066C189.253 207.063 189.253 206.568 189.545 205.447C189.923 203.991 190.36 203.045 191.19 201.924C193.228 199.188 196.983 197.441 201.22 197.266C207.523 197.004 212.327 199.843 213.797 204.734C214.045 205.549 214.059 207.208 214.103 235.433L214.147 265.273L214.452 265.521C214.729 265.753 215.209 265.783 219.562 265.783H224.351L224.701 265.419L225.065 265.069V235.36C225.065 203.06 225.021 204.763 225.865 202.623C227.103 199.435 229.403 197.048 232.736 195.447C233.552 195.054 234.862 194.559 235.648 194.355C236.914 194.02 237.351 193.977 239.477 193.962C241.5 193.962 242.068 194.02 243.043 194.282C244.921 194.792 246.697 195.753 247.964 196.932C249.754 198.606 250.729 200.396 251.268 203.016C251.545 204.428 251.559 204.923 251.559 220.134C251.559 235.607 251.559 235.797 251.85 236.088C252.127 236.364 252.331 236.379 257.062 236.379C261.633 236.379 262.011 236.364 262.23 236.117C262.448 235.884 262.477 233.177 262.521 203.991C262.579 169.173 262.506 171.633 263.365 168.576C265.229 161.909 270.6 157.775 277.006 158.11C278.971 158.212 280.528 158.605 282.232 159.449C286.031 161.313 288.535 164.66 289.583 169.231L289.903 170.658L289.947 198.46L289.991 226.262L290.297 226.51C290.573 226.743 291.039 226.772 295.217 226.772C299.147 226.772 299.875 226.743 300.152 226.539L300.472 226.321V180.294C300.472 147.63 300.516 133.889 300.632 132.957C301.142 128.809 303.209 125.126 306.353 122.753C307.518 121.865 309.862 120.73 311.317 120.351C314.811 119.449 318.611 120.046 321.493 121.982C324.637 124.078 326.574 127.455 327.505 132.448C327.753 133.758 327.767 138.226 327.796 219.567C327.826 266.714 327.869 305.434 327.913 305.608C328.044 306.191 328.495 306.249 333.445 306.249C338.452 306.249 338.831 306.205 338.991 305.565C339.049 305.375 338.875 260.542 338.627 205.913C338.278 132.71 338.205 106.261 338.321 105.3C338.613 102.84 339.224 100.802 340.214 98.8227C343.882 91.5446 352.704 88.4296 359.983 91.8357C364.19 93.8154 367.014 97.6873 368.12 103.044C368.353 104.223 368.368 110.628 368.412 226.539C368.455 339.888 368.47 348.826 368.703 349.073C368.921 349.321 370.391 349.335 407.76 349.335C445.188 349.335 446.585 349.321 446.818 349.073C447.138 348.709 447.124 347.981 446.803 347.69C446.556 347.457 443.688 347.443 408.445 347.443H370.348L370.304 225.578L370.275 103.699L369.94 102.243C368.557 96.2754 365.631 92.3743 360.813 90.0744C354.655 87.1341 347.129 88.3859 342.048 93.1603C339.311 95.7513 337.637 98.7936 336.691 102.942C336.429 104.136 336.385 104.878 336.327 109.667C336.269 114.762 336.895 262.726 337.099 291.008L337.186 304.211H333.459H329.733V219.436C329.733 144.151 329.703 134.456 329.514 132.928C328.932 128.474 327.447 125.024 325.016 122.433C323.167 120.482 321.275 119.303 318.713 118.517C317.519 118.153 317.242 118.124 314.738 118.124C312.409 118.124 311.9 118.168 310.91 118.444C307.765 119.318 305.247 120.803 303.151 123.03C300.734 125.606 299.249 128.721 298.725 132.375C298.638 133.03 298.58 149.566 298.58 179.057V224.734H295.231H291.883L291.84 197.397L291.796 170.075L291.49 168.765C291.068 166.96 290.806 166.218 290.049 164.66C288.171 160.759 284.546 157.761 280.31 156.611C278.534 156.131 274.953 156.043 273.133 156.451C267.587 157.673 263.511 161.604 261.633 167.528C260.585 170.832 260.672 168.139 260.614 203.089L260.585 234.487L257.047 234.458L253.524 234.414L253.452 218.693C253.379 203.162 253.379 202.958 253.059 201.881C252.185 198.795 250.89 196.67 248.939 195.112C246.231 192.929 243.422 191.982 239.608 191.982C234.745 191.982 230.509 193.656 227.321 196.859C224.875 199.29 223.565 202.041 223.172 205.549C223.085 206.277 223.027 218.184 223.027 235.244V263.745H219.533H216.039L215.995 234.443C215.952 201.764 216.039 204.515 214.947 202.23C212.691 197.528 206.839 194.792 200.302 195.345C194.523 195.84 189.952 198.853 188.132 203.336C187.244 205.563 187.303 202.885 187.259 240.193L187.215 274.225H183.43H179.645L179.616 241.357L179.573 208.504L179.223 207.267C177.826 202.216 174.419 198.838 169.455 197.572C167.81 197.15 163.443 197.194 161.842 197.63C158.901 198.445 156.441 199.828 154.534 201.793C152.496 203.889 151.171 206.655 150.836 209.523C150.72 210.411 150.676 220.454 150.676 240.629V270.441H147.838H144.999V254.312C144.999 238.3 144.955 236.656 144.489 234.865C142.888 228.737 137.4 225.287 130.296 225.898C122.886 226.554 116.787 231.313 115.535 237.427C115.331 238.431 115.302 243.177 115.302 284.924V331.286H112.128H108.969L109.013 328.185C109.42 297.937 109.595 277.952 109.479 277.224C108.722 272.624 104.806 269.465 98.8809 268.679C97.2359 268.461 94.208 268.606 92.563 268.97C87.6135 270.091 83.945 273.308 83.057 277.311C82.8677 278.17 82.6203 283.701 81.8487 304.75C81.3101 319.262 80.8297 331.155 80.786 331.198C80.7423 331.256 71.5857 331.271 60.4347 331.256L40.1854 331.213L49.5895 317.894C54.7573 310.572 59.6632 303.629 60.4784 302.464C61.3082 301.3 66.2577 294.298 71.4838 286.889C81.6886 272.449 91.2965 258.839 103.044 242.201C107.091 236.481 111.327 230.484 112.463 228.883C113.584 227.281 120.324 217.732 127.443 207.66L140.37 189.362H141.549C142.51 189.362 189.05 188.3 225.356 187.456C229.243 187.368 232.489 187.252 232.591 187.194C232.678 187.15 260.716 159.391 294.868 125.533C329.034 91.661 358.12 62.8688 359.503 61.5297L362.006 59.0988L369.416 67.3521C383.362 82.8691 384.614 84.2519 384.92 84.4266C385.327 84.6304 385.881 84.4848 386.084 84.0918C386.172 83.9317 386.608 82.4761 387.045 80.8603C387.933 77.5852 388.486 75.5473 391.005 66.2168C392.999 58.8368 397.818 40.9763 398.895 36.9588C399.302 35.474 399.943 33.0868 400.336 31.6458C400.729 30.2047 401.603 26.9295 402.301 24.3676C403 21.8058 404.121 17.6427 404.791 15.1245C405.475 12.6062 406.596 8.47226 407.28 5.95404C407.964 3.43582 408.532 1.16504 408.532 0.888458C408.546 0.2771 408.197 -0.0140381 407.484 0.000518799C407.193 0.0150757 400.671 1.15048 392.985 2.53333ZM282.843 232.274C283.877 234.341 284.808 236.102 284.925 236.19C285.027 236.277 286.584 236.583 288.375 236.874C291.228 237.34 291.679 237.369 291.941 237.194C292.116 237.092 293.645 235.768 295.362 234.283C297.08 232.784 298.551 231.59 298.652 231.634C298.769 231.677 304.388 235.142 304.796 235.418C304.81 235.433 304.272 237.369 303.587 239.727C302.918 242.085 302.365 244.123 302.365 244.254C302.365 244.603 305.844 249.48 306.208 249.625C306.368 249.698 308.45 249.843 310.808 249.945L315.102 250.135L315.583 252.318C315.845 253.512 316.209 255.2 316.398 256.059L316.733 257.617L312.759 259.887C309.236 261.911 308.77 262.231 308.639 262.638C308.479 263.148 307.605 267.908 307.605 268.286C307.605 268.417 308.886 270.048 310.459 271.896C312.336 274.109 313.283 275.346 313.239 275.506C313.152 275.855 309.527 281.401 309.294 281.561C309.177 281.649 307.707 281.285 305.072 280.499C302.86 279.858 300.909 279.32 300.749 279.32C300.472 279.32 296.09 282.216 295.479 282.813C295.246 283.032 295.188 283.556 295.013 287.544C294.897 290.004 294.795 292.042 294.766 292.057C294.707 292.129 290.675 293.003 290.631 292.959C290.559 292.872 282.567 276.54 282.567 276.481C282.567 276.438 283.149 276.409 283.862 276.409C285.784 276.409 287.239 276.161 289.045 275.564C293.892 273.919 297.532 269.96 298.813 264.909C299.031 264.021 299.089 263.323 299.075 261.197C299.075 258.781 299.046 258.475 298.682 257.267C297.066 251.896 293.033 248.024 287.662 246.67C285.871 246.219 282.45 246.219 280.63 246.685C274.356 248.257 269.945 253.279 269.174 259.727C268.562 264.836 271.284 271.445 275.186 274.327L276.045 274.953L278.156 279.276C279.32 281.663 280.412 283.949 280.601 284.356L280.922 285.084L278.738 284.808C277.326 284.618 276.438 284.56 276.205 284.647C276.016 284.72 274.502 286.001 272.828 287.486L269.8 290.208L266.539 288.097C264.748 286.933 263.263 285.972 263.249 285.957C263.234 285.943 263.7 284.429 264.297 282.595C265.738 278.184 265.884 277.646 265.738 277.398C265.185 276.496 262.113 272.304 261.924 272.202C261.779 272.129 259.784 271.983 257.47 271.882C253.452 271.707 253.277 271.692 253.146 271.401C252.884 270.746 251.516 264.269 251.647 264.225C251.719 264.196 253.51 263.206 255.635 262.027L259.493 259.887L260.119 256.758C260.454 255.04 260.701 253.497 260.672 253.337C260.628 253.177 259.289 251.648 257.673 249.96L254.747 246.859L256.887 243.584C258.052 241.779 259.085 240.309 259.158 240.309C259.246 240.309 261.022 240.877 263.118 241.561C266.189 242.565 266.99 242.784 267.296 242.667C267.5 242.594 268.824 241.736 270.236 240.76C271.983 239.552 272.828 238.883 272.886 238.664C272.915 238.49 273.017 236.481 273.09 234.225C273.162 231.954 273.25 230.062 273.293 230.032C273.366 229.945 280.223 228.548 280.63 228.533C280.922 228.519 281.198 228.999 282.843 232.274ZM287.298 248.606C291.563 249.683 295.173 253.017 296.542 257.092C297.124 258.81 297.328 260.295 297.226 262.042C297.051 265.244 295.872 267.966 293.659 270.324C290.588 273.585 286.148 275.026 281.591 274.24C280.47 274.036 280.368 274.05 280.092 274.298C279.917 274.458 279.801 274.735 279.815 275.011C279.815 275.302 281.431 278.738 284.226 284.414L288.637 293.367L287.982 293.57C287.603 293.672 287.283 293.701 287.269 293.643C287.239 293.57 285.07 289.058 282.435 283.614L277.646 273.73L276.569 272.915C274.021 270.965 271.881 267.224 271.226 263.541C271.022 262.435 271.022 260.266 271.226 259.145C272.071 254.341 275.492 250.382 280.063 248.897C280.834 248.65 281.868 248.388 282.348 248.315C283.615 248.126 285.958 248.257 287.298 248.606ZM206.417 267.908C211.104 268.927 214.962 269.771 214.991 269.785C215.02 269.815 215.369 274.08 215.762 279.276C216.156 284.458 216.549 288.84 216.636 289C216.796 289.305 226.419 296.045 226.986 296.249C227.248 296.351 229.519 295.652 236.565 293.308C241.646 291.62 245.838 290.295 245.882 290.368C248.691 294.531 255.49 305.143 255.446 305.288C255.402 305.39 248.08 313.192 239.156 322.625C230.247 332.042 222.896 339.859 222.823 339.976C222.765 340.107 222.604 340.601 222.503 341.096C222.124 342.712 221.556 344.299 220.756 345.973C219.169 349.292 217.524 351.606 214.656 354.561C209.284 360.063 203.738 363.105 196.896 364.284C194.843 364.634 190.171 364.619 188.162 364.27C181.596 363.105 176.588 360.544 172.134 356.118C169.106 353.091 166.864 349.597 165.394 345.594C165.074 344.692 164.797 343.891 164.797 343.833C164.797 343.76 177.156 343.658 192.281 343.6C217.975 343.513 219.766 343.484 219.999 343.251C220.304 342.93 221.018 340.558 221.527 338.083C221.891 336.278 221.92 335.929 221.92 332.377C221.935 328.971 221.891 328.447 221.6 327.064C219.169 315.9 210.376 308.025 197.842 305.798C195.702 305.405 190.986 305.259 188.817 305.506C181.596 306.322 175.861 308.956 171.013 313.658C166.049 318.476 162.846 324.866 161.973 331.693C161.711 333.687 161.667 337.617 161.885 339.219C161.958 339.772 162.075 340.587 162.118 341.009L162.22 341.766L150.589 341.737L138.972 341.693L138.768 340.674C138.666 340.107 138.477 339.568 138.375 339.452C138.259 339.335 134.416 337.239 129.83 334.779C124.487 331.911 121.503 330.237 121.518 330.106C121.678 329 124.808 313.425 124.88 313.352C124.939 313.294 129.35 312.872 134.663 312.421C141.054 311.882 144.446 311.533 144.649 311.416C145.144 311.096 151.695 301.227 151.695 300.79C151.695 300.441 150.996 298.287 146.935 285.957C146.222 283.789 145.872 282.551 145.96 282.435C146.032 282.333 147.561 281.285 149.366 280.106C151.171 278.941 152.976 277.762 153.369 277.5C153.777 277.238 155.451 276.147 157.125 275.055C158.785 273.963 160.27 273.002 160.444 272.915C160.706 272.77 160.91 272.886 162.075 273.832C162.817 274.429 166.267 277.253 169.746 280.106C174.303 283.832 176.181 285.288 176.443 285.288C177.316 285.288 188.031 283.192 188.263 282.973C188.453 282.784 191.99 276.481 197.1 267.194C197.435 266.583 197.755 266.074 197.813 266.074C197.857 266.074 201.729 266.903 206.417 267.908ZM310.357 294.487C313.108 295.07 315.379 295.608 315.393 295.696C315.423 295.768 315.714 298.49 316.034 301.722C316.529 306.7 316.66 307.646 316.878 307.865C317.388 308.33 322.818 311.969 323.123 312.028C323.298 312.071 325.293 311.562 327.564 310.907C329.834 310.252 332.353 309.524 333.154 309.291C333.954 309.058 334.638 308.927 334.697 308.985C334.784 309.087 339.937 317.093 340.112 317.399C340.17 317.486 338.511 319.553 336.429 321.984C333.983 324.837 332.644 326.526 332.644 326.729C332.644 327.064 333.896 334.066 334.042 334.517C334.085 334.692 335.992 335.725 339.428 337.443C342.339 338.898 344.727 340.179 344.727 340.281C344.727 340.47 342.689 350.252 342.63 350.31C342.616 350.325 336.007 350.543 327.957 350.776L313.312 351.213L312.482 351.752C309.177 353.862 303.413 354.619 298.623 353.571C293.019 352.348 288.448 348.607 286.191 343.367C283.6 337.37 284.634 330.427 288.841 325.419C290.515 323.44 292.189 322.101 294.431 320.98C296.498 319.961 299.555 319.117 300.865 319.233L301.404 319.277L308.551 333.789C312.497 341.781 315.83 348.447 315.976 348.607C316.354 349.015 316.937 348.971 317.388 348.491C318.946 346.817 320.489 343.469 321.173 340.339C321.566 338.505 321.61 335.041 321.246 333.105C319.848 325.419 313.719 319.117 306.208 317.617C305.422 317.457 304.272 317.282 303.66 317.239L302.539 317.137L299.482 310.921L296.425 304.72L297.328 304.531C297.808 304.429 298.58 304.269 299.016 304.167L299.817 303.978L302.51 298.709C303.98 295.812 305.232 293.439 305.276 293.439C305.32 293.439 307.605 293.905 310.357 294.487ZM195.236 307.413C205.441 308.432 214.205 314.153 217.946 322.202C220.421 327.53 220.785 333.818 219.009 340.238L218.63 341.577L191.539 341.664C176.632 341.722 164.389 341.708 164.317 341.635C163.982 341.3 163.72 338.68 163.72 335.725C163.72 332.479 163.851 331.446 164.593 328.447C166.18 322.202 169.994 316.526 175.322 312.566C180.548 308.665 188.118 306.7 195.236 307.413ZM306.586 319.728C309.731 320.543 312.016 321.882 314.447 324.299C316.383 326.235 317.446 327.836 318.363 330.179C319.877 334.037 319.95 338.52 318.582 342.377C318.101 343.731 316.908 346.031 316.762 345.885C316.704 345.813 313.705 339.786 310.095 332.465L303.544 319.175L304.374 319.262C304.825 319.32 305.829 319.524 306.586 319.728Z" fill="url(#paint0_linear_2115_14)"></path><defs><linearGradient id="paint0_linear_2115_14" x1="223.526" y1="408" x2="400.058" y2="20.1314" gradientUnits="userSpaceOnUse"><stop stop-color="#53DDCF"></stop><stop offset="1" stop-color="#B9FF57"></stop></linearGradient></defs></svg> 